<?xml version="1.0" standalone="no"?>
<!DOCTYPE svg PUBLIC "-//W3C//DTD SVG 20010904//EN"
 "http://www.w3.org/TR/2001/REC-SVG-20010904/DTD/svg10.dtd">
<svg version="1.0" xmlns="http://www.w3.org/2000/svg"
 width="472.000000pt" height="472.000000pt" viewBox="0 0 472.000000 472.000000"
 preserveAspectRatio="xMidYMid meet">
<metadata>
Created by potrace 1.11, written by Peter Selinger 2001-2013
</metadata>
<g transform="translate(0.000000,472.000000) scale(0.100000,-0.100000)"
fill="#000000" stroke="none">
<path d="M1499 4296 c-2 -2 -18 -6 -36 -9 -43 -7 -50 -13 -58 -46 -9 -43 -28
-55 -72 -46 -90 17 -89 17 -161 -28 -86 -56 -176 -144 -230 -228 -42 -63 -96
-190 -106 -245 -3 -16 -9 -49 -14 -74 -16 -89 -6 -238 25 -340 9 -30 17 -95
18 -145 2 -74 8 -100 30 -148 30 -63 73 -105 115 -114 22 -4 33 -17 55 -66 39
-86 98 -171 167 -241 55 -57 58 -63 59 -111 3 -111 -25 -127 -421 -244 -184
-55 -442 -145 -516 -182 -123 -60 -198 -138 -235 -246 -17 -50 -19 -76 -15
-203 4 -126 12 -198 31 -286 4 -16 32 -33 115 -68 247 -106 517 -192 760 -242
19 -4 40 -9 45 -10 23 -5 77 -14 185 -30 123 -19 498 -26 635 -12 95 10 342
54 440 78 44 11 89 22 100 25 109 25 464 152 591 211 66 31 72 38 80 104 4 30
8 64 9 75 2 11 4 35 4 53 l1 32 688 0 687 0 40 23 c22 13 49 40 62 62 l23 40
0 915 0 916 -22 44 c-17 33 -35 51 -68 68 l-44 22 -1035 0 c-569 0 -1032 2
-1029 5 3 3 -1 31 -9 63 -7 31 -15 64 -17 72 -22 89 -95 215 -176 303 -92 101
-202 171 -342 218 -82 28 -109 33 -224 36 -72 2 -132 1 -135 -1z m2976 -821
l25 -24 0 -741 0 -741 -25 -24 -24 -25 -720 0 -720 0 -38 35 c-77 71 -217 127
-618 250 -258 79 -316 98 -355 117 -38 19 -80 65 -81 90 -4 72 0 91 22 106 45
31 113 107 154 172 41 65 85 152 85 169 0 5 16 12 35 15 59 11 122 93 140 181
3 17 6 59 6 95 0 36 6 87 15 115 8 27 17 66 20 85 4 19 8 42 9 50 2 8 4 34 4
58 l1 42 1020 0 1021 0 24 -25z m-202 -1713 c18 -20 17 -43 -2 -66 -11 -13
-40 -16 -180 -16 -175 0 -201 6 -207 46 -2 10 4 27 13 36 14 16 36 18 188 18
152 0 174 -2 188 -18z"/>
<path d="M3276 3013 c-15 -54 -43 -154 -62 -223 -19 -69 -37 -132 -39 -140
-13 -50 -116 -417 -120 -428 -4 -10 7 -12 42 -10 l46 3 29 100 c15 55 30 109
32 120 3 11 21 79 42 150 20 72 40 144 44 160 5 17 29 103 54 193 25 90 46
165 46 168 0 2 -20 4 -44 4 l-43 0 -27 -97z"/>
<path d="M2966 2941 c-3 -5 -18 -12 -33 -16 -15 -3 -52 -17 -81 -31 -29 -13
-55 -24 -57 -24 -2 0 -28 -11 -57 -24 -29 -14 -96 -42 -148 -64 -196 -81 -180
-70 -180 -128 l0 -51 273 -116 c149 -64 280 -119 290 -123 15 -5 17 1 17 47
l0 54 -178 74 c-97 40 -199 83 -226 95 l-49 22 179 73 c98 40 199 82 224 94
44 22 45 23 48 75 3 47 -7 67 -22 43z"/>
<path d="M3459 2947 c-1 -1 -2 -25 -3 -54 l-2 -52 201 -82 c110 -45 211 -88
225 -95 24 -12 24 -13 5 -20 -62 -23 -419 -175 -424 -179 -7 -7 -9 -105 -1
-105 3 0 133 55 290 123 l285 122 1 42 c0 24 -3 48 -6 53 -7 11 -567 253 -571
247z"/>
</g>
</svg>
